<svg width="180" height="21" viewBox="0 0 180 21" fill="none" xmlns="http://www.w3.org/2000/svg">
<path d="M64.2026 0.0121716C64.3225 0.0121716 64.4208 0.0121716 64.5215 0.0121716C70.3505 0.0121716 76.177 0.0433425 82.006 0.000182785C85.8088 -0.0261926 88.878 2.80556 89.499 6.08331C90.1416 9.47134 88.6262 12.5573 85.8544 14.1853C85.7537 14.2429 85.653 14.3004 85.5259 14.3748C86.4203 15.3674 87.3026 16.3433 88.1826 17.3216C89.065 18.2999 89.9474 19.2782 90.8585 20.2876C90.7578 20.2948 90.6955 20.3044 90.6355 20.3044C88.9403 20.3044 87.2451 20.3092 85.5499 20.2972C85.43 20.2972 85.2741 20.2277 85.1926 20.1366C83.7491 18.5493 82.3129 16.9548 80.8694 15.365C80.7927 15.2787 80.6488 15.2044 80.5385 15.2044C76.4887 15.1972 72.4389 15.1972 68.3891 15.1972C68.3387 15.1972 68.2908 15.202 68.1997 15.2068V20.2876H64.2002V0.0121716H64.2026ZM68.1949 4.02603V4.35931C68.1949 6.5221 68.1949 8.68488 68.1949 10.8453C68.1949 11.0738 68.3068 11.1881 68.5306 11.1881C72.9304 11.1881 77.3303 11.1881 81.7302 11.1881C81.946 11.1881 82.1642 11.1785 82.38 11.1618C84.4109 11.0083 85.8975 9.0901 85.605 7.07838C85.3772 5.50305 83.9194 4.00445 82.0084 4.01643C77.5006 4.04521 72.9928 4.02603 68.485 4.02603H68.1973H68.1949Z" fill="#242D3F"/>
<path d="M155.505 20.3046C155.572 20.1943 155.61 20.1223 155.656 20.0552C156.426 18.8731 157.2 17.6934 157.96 16.5065C158.071 16.3339 158.19 16.2835 158.385 16.2835C163.396 16.2883 168.405 16.2835 173.416 16.2907C174.028 16.2907 174.579 16.1565 175.011 15.7057C175.653 15.0343 175.814 14.2454 175.452 13.3966C175.095 12.5646 174.418 12.157 173.51 12.157C171.663 12.157 169.82 12.157 167.973 12.157C165.878 12.157 163.782 12.169 161.686 12.1474C160.205 12.1306 158.919 11.5767 157.84 10.5697C155.884 8.74497 155.282 6.07146 156.382 3.62814C157.277 1.6404 158.845 0.427131 161.027 0.0770578C161.363 0.024307 161.708 0.014716 162.051 0.014716C167.913 0.00992043 173.776 0.0123182 179.636 0.0123182H180C179.928 0.132206 179.885 0.208935 179.837 0.283265C179.077 1.45098 178.312 2.61629 177.562 3.79119C177.452 3.96383 177.337 4.03336 177.126 4.03097C172.107 4.02377 167.088 4.02617 162.07 4.02377C161.427 4.02377 160.864 4.20121 160.432 4.68795C159.857 5.33535 159.718 6.08105 160.046 6.87711C160.37 7.66597 160.996 8.07839 161.847 8.14313C161.955 8.15032 162.063 8.14792 162.173 8.14792C165.947 8.14792 169.721 8.13833 173.495 8.15272C175.66 8.15991 177.382 9.06387 178.617 10.843C180.631 13.7467 179.602 17.8924 176.476 19.5661C175.543 20.0672 174.548 20.3046 173.495 20.3046C167.575 20.3094 161.655 20.3046 155.733 20.3046H155.507H155.505Z" fill="#242D3F"/>
<path d="M124.889 6.82423H124.616C123.321 6.82423 122.026 6.82183 120.734 6.82902C120.559 6.82902 120.449 6.78347 120.341 6.6372C119.072 4.92041 117.396 4.01165 115.231 4.02124C111.925 4.03803 108.618 4.0644 105.312 4.01405C102.24 3.96849 99.5953 6.39263 99.1973 9.28673C98.7537 12.5237 100.945 15.6168 104.156 16.1947C104.547 16.2642 104.952 16.2834 105.352 16.2834C108.649 16.2906 111.949 16.281 115.248 16.2906C117.255 16.2978 118.869 15.5065 120.123 13.96C120.252 13.7993 120.382 13.7418 120.583 13.7418C121.885 13.7514 123.187 13.7466 124.491 13.7466H124.786C124.762 13.8305 124.75 13.8952 124.724 13.9528C123.218 17.3864 120.643 19.4868 116.941 20.1606C116.377 20.2637 115.795 20.2973 115.222 20.2997C111.939 20.3116 108.659 20.2997 105.376 20.3068C100.638 20.3188 96.8091 17.2017 95.5695 13.0776C93.8767 7.45004 97.3367 1.52038 103.07 0.25436C103.758 0.103301 104.475 0.0289705 105.18 0.0265727C108.661 0.00499283 112.143 -0.0189848 115.624 0.033766C118.581 0.0793235 121.019 1.31657 122.976 3.51532C123.777 4.41688 124.376 5.44312 124.805 6.57007C124.834 6.6444 124.856 6.72352 124.889 6.82663V6.82423Z" fill="#242D3F"/>
<path d="M27.2745 0.00976562C26.6224 0.762663 26.0229 1.45562 25.4211 2.14857C24.9343 2.70965 24.4428 3.26593 23.9632 3.8342C23.8433 3.97566 23.7211 4.02841 23.5364 4.02602C17.7578 4.02122 11.9792 4.02122 6.20301 4.02362C5.10963 4.02362 4.31837 4.60867 4.0738 5.59655C4.04263 5.72603 4.02345 5.8603 4.02345 5.99218C4.01865 6.97766 4.02105 7.96314 4.02345 8.94862C4.02345 9.00377 4.03543 9.06132 4.04742 9.14284C9.26495 9.10687 14.4705 9.06851 19.7312 9.03015C19.6664 9.13325 19.6281 9.20279 19.5825 9.26752C18.8128 10.4089 18.0408 11.5502 17.2807 12.6963C17.1728 12.857 17.0601 12.9049 16.8754 12.9049C12.7081 12.9121 8.54323 12.9241 4.37592 12.9361C4.27041 12.9361 4.16252 12.9361 4.02105 12.9361V20.2924H0C0 20.1845 0 20.0862 0 19.9903C0 15.3147 0 10.639 0 5.96341C0 3.05732 2.29945 0.436567 5.16957 0.0745052C5.50766 0.0313455 5.85054 0.0145611 6.19342 0.0121634C13.099 0.00976563 20.0045 0.00976562 26.9101 0.00976562H27.2769H27.2745Z" fill="#242D3F"/>
<path d="M141.281 20.1631H137.243C137.238 20.0696 137.231 19.9881 137.231 19.9066C137.217 17.0748 137.202 14.2455 137.198 11.4137C137.198 11.2027 137.133 11.0636 136.977 10.9222C133.045 7.36389 129.119 3.80082 125.19 0.240142C125.125 0.180198 125.048 0.132243 124.979 0.0770945L125.014 0.0195482C125.094 0.0171504 125.175 0.00995712 125.254 0.00995712C127.141 0.00995712 129.028 0.0051616 130.915 0.0171504C131.054 0.0171504 131.227 0.0842877 131.33 0.1778C133.913 2.51322 136.488 4.85583 139.065 7.19845C139.109 7.23681 139.154 7.27518 139.216 7.33032C139.305 7.2536 139.394 7.18166 139.478 7.10493C142.034 4.7887 144.587 2.47246 147.148 0.161016C147.232 0.0842877 147.362 0.0147526 147.47 0.0147526C149.424 0.0051616 151.378 0.00755936 153.332 0.00995712C153.373 0.00995712 153.411 0.0171504 153.502 0.0866855C153.428 0.137039 153.349 0.1778 153.284 0.235347C149.354 3.79363 145.424 7.3543 141.49 10.9078C141.307 11.0732 141.231 11.2363 141.233 11.4832C141.257 14.2718 141.267 17.0604 141.281 19.8514C141.281 19.9497 141.281 20.0481 141.281 20.1607V20.1631Z" fill="#242D3F"/>
<path d="M31.9721 9.93902H27.9727C28.0182 9.46427 28.0278 8.9967 28.1141 8.54592C28.891 4.48172 31.26 1.78903 35.1611 0.448682C36.1131 0.122586 37.1129 0.0122888 38.12 0.0146866C39.5155 0.0146866 40.9086 0.0146866 42.3041 0.0146866C42.3688 0.0146866 42.4336 0.0242776 42.5127 0.0314709V4.02614C42.424 4.02614 42.3352 4.02614 42.2489 4.02614C40.8534 4.02614 39.4603 4.01895 38.0648 4.02854C35.1827 4.05012 32.7538 6.01628 32.1304 8.83366C32.0512 9.18852 32.0249 9.55538 31.9721 9.93902Z" fill="#242D3F"/>
<path d="M58.2733 9.93377H54.2954C54.2523 9.60049 54.2235 9.27679 54.1708 8.95789C53.7607 6.48819 51.3918 4.04727 48.3418 4.03048C47.0134 4.02329 45.6875 4.02569 44.3591 4.02569C44.2608 4.02569 44.1625 4.02569 44.0498 4.02569V0.0382106C44.1097 0.0310173 44.1721 0.014233 44.2344 0.014233C45.6275 0.014233 47.023 -0.00734691 48.4161 0.0286195C51.5092 0.110143 54.0365 1.38575 56.005 3.75234C57.4509 5.49072 58.187 7.51443 58.2805 9.77312C58.2805 9.82108 58.2757 9.86903 58.2709 9.93617L58.2733 9.93377Z" fill="#242D3F"/>
<path d="M42.5121 20.2759C42.4785 20.2879 42.4641 20.2999 42.4497 20.2999C40.673 20.2879 38.8866 20.3838 37.1195 20.2328C34.235 19.9882 31.8948 18.631 30.1036 16.3508C29.051 15.0128 28.3988 13.4974 28.1183 11.819C28.1039 11.7375 28.0967 11.6536 28.0895 11.5696C28.0871 11.5385 28.0919 11.5073 28.0943 11.4545H28.2741C29.485 11.4545 30.6935 11.4569 31.9044 11.4521C32.0626 11.4521 32.1226 11.4905 32.1705 11.656C32.8826 14.1185 34.482 15.653 36.9996 16.1877C37.4264 16.2788 37.8796 16.2812 38.3208 16.2836C39.606 16.2956 40.8912 16.2884 42.1764 16.2884H42.5097V20.2759H42.5121Z" fill="#242D3F"/>
<path d="M58.2034 11.4756C58.1074 12.3412 57.894 13.1708 57.5488 13.9621C56.0214 17.4724 53.3647 19.556 49.5906 20.1986C49.1326 20.2778 48.6603 20.2946 48.1927 20.2994C46.8571 20.3137 45.5216 20.3041 44.186 20.3041C44.1453 20.3041 44.1045 20.297 44.0518 20.2922V16.3047C44.1525 16.2999 44.258 16.2879 44.3611 16.2879C45.7302 16.2807 47.0993 16.2999 48.4684 16.2663C51.118 16.1968 53.4893 14.2474 54.1056 11.665C54.12 11.6075 54.1343 11.5523 54.1559 11.4756H58.2034Z" fill="#242D3F"/>
</svg>
